<svg version="1.1" xmlns="http://www.w3.org/2000/svg" xmlns:xlink="http://www.w3.org/1999/xlink" width="50" height="50" viewBox="0,0,255.98959,255.98959"><g fill="#ffffff" fill-rule="nonzero" stroke="none" stroke-width="1" stroke-linecap="butt" stroke-linejoin="miter" stroke-miterlimit="10" stroke-dasharray="" stroke-dashoffset="0" font-family="none" font-weight="none" font-size="none" text-anchor="none" style="mix-blend-mode: normal"><g transform="scale(5.12,5.12)"><path d="M25,3c-5.53333,0 -10,4.46667 -10,10v6c0,3.23402 1.59312,6.12561 4,7.94922v4.55078c0,0.10417 -0.02323,0.2048 -0.2832,0.44727c-0.25997,0.24246 -0.7362,0.54388 -1.35156,0.85156c-1.23072,0.61536 -2.99728,1.27541 -4.80273,2.15234c-1.80545,0.87693 -3.66878,1.97889 -5.11719,3.58594c-1.44841,1.60704 -2.44531,3.7522 -2.44531,6.46289v1h40v-1c0,-2.73333 -0.99515,-4.88664 -2.44531,-6.49219c-1.45017,-1.60554 -3.31713,-2.69629 -5.12305,-3.56055c-1.80592,-0.86426 -3.57138,-1.51029 -4.79883,-2.12109c-0.61373,-0.3054 -1.08727,-0.60568 -1.3457,-0.84961c-0.25843,-0.24393 -0.28711,-0.35064 -0.28711,-0.47656v-4.55078c2.40689,-1.82361 4,-4.7152 4,-7.94922v-6c0,-5.53333 -4.46667,-10 -10,-10zM25,5c4.46667,0 8,3.53333 8,8v6c0,2.75591 -1.43204,5.25287 -3.55469,6.66797l-0.44531,0.29688v5.53516c0,0.77407 0.40882,1.45291 0.91602,1.93164c0.5072,0.47873 1.1274,0.83782 1.82617,1.18555c1.39755,0.69544 3.13209,1.32403 4.82617,2.13477c1.69408,0.81074 3.32712,1.795 4.50195,3.0957c0.97488,1.07933 1.5468,2.45464 1.75195,4.15234h-35.64258c0.20631,-1.67658 0.77542,-3.04369 1.75,-4.125c1.17659,-1.30546 2.81326,-2.30193 4.50781,-3.125c1.69455,-0.82307 3.42799,-1.46497 4.82227,-2.16211c0.69714,-0.34857 1.31466,-0.70613 1.82031,-1.17773c0.50566,-0.4716 0.91992,-1.13932 0.91992,-1.91016v-5.53516l-0.44531,-0.29687c-2.12265,-1.4151 -3.55469,-3.91205 -3.55469,-6.66797v-6c0,-4.46667 3.53333,-8 8,-8z"></path></g></g></svg>